<svg xmlns="http://www.w3.org/2000/svg" viewBox="0 0 2603.76 2606.26">
  <defs>
    <style>
      .a {
        fill: #000814;
      }

      .b {
        fill: #17c8be;
      }

      .c, .d {
        fill: #fff;
      }

      .d {
        opacity: 0.07;
      }

      .e {
        fill: #65c8d0;
      }
    </style>
  </defs>
  <g>
    <path class="a" d="M1118.37,2853H858.24a24,24,0,0,0-24,24v267.09H708.12V2750.88a24,24,0,0,1,24-24h386.25" transform="translate(-708.12 -706.87)"/>
    <rect class="a" x="453.15" y="2020" width="130.61" height="126.12"/>
    <path class="a" d="M1291.84,2984.24v304.89a24,24,0,0,1-24,24H877.14V3187H1141.7a24,24,0,0,0,24-24v-76.63H1005.83L975.5,3073.8q-6.29-15.16-12.56-30.34v-83.22h304.9A24,24,0,0,1,1291.84,2984.24Z" transform="translate(-708.12 -706.87)"/>
    <path class="a" d="M708.12,3187H834.24a0,0,0,0,1,0,0v102.12a24,24,0,0,1-24,24H708.12a0,0,0,0,1,0,0V3187A0,0,0,0,1,708.12,3187Z" transform="translate(3313.12 1772) rotate(90)"/>
  </g>
  <g>
    <path class="b" d="M1118.37,833H855.69a21.45,21.45,0,0,0-21.45,21.44v269.65H708.12V749.77A42.9,42.9,0,0,1,751,706.88h367.35" transform="translate(-708.12 -706.87)"/>
    <rect class="c" x="1163.51" y="704.63" width="126.12" height="130.61" transform="translate(1288.39 -1163.51) rotate(90)"/>
    <path class="b" d="M1291.84,983.14v267.09a42.9,42.9,0,0,1-42.9,42.9H877.14V1167h267.11a21.45,21.45,0,0,0,21.45-21.45v-57.73a21.45,21.45,0,0,0-21.45-21.45H1005.83a42.9,42.9,0,0,1-42.89-42.9V983.14a42.9,42.9,0,0,1,42.89-42.9h243.11A42.9,42.9,0,0,1,1291.84,983.14Z" transform="translate(-708.12 -706.87)"/>
    <path class="c" d="M708.12,1167H834.24a0,0,0,0,1,0,0v102.12a24,24,0,0,1-24,24H708.12a0,0,0,0,1,0,0V1167A0,0,0,0,1,708.12,1167Z" transform="translate(1293.12 -248) rotate(90)"/>
  </g>
  <g>
    <path class="b" d="M3138.37,833H2875.69a21.45,21.45,0,0,0-21.45,21.44v269.65H2728.12V749.77a42.9,42.9,0,0,1,42.9-42.89h367.35" transform="translate(-708.12 -706.87)"/>
    <rect x="3183.51" y="704.63" width="126.12" height="130.61" transform="translate(3308.39 -3183.51) rotate(90)"/>
    <path class="b" d="M3311.84,983.14v267.09a42.9,42.9,0,0,1-42.9,42.9h-371.8V1167h267.11a21.45,21.45,0,0,0,21.45-21.45v-57.73a21.45,21.45,0,0,0-21.45-21.45H3025.83a42.9,42.9,0,0,1-42.89-42.9V983.14a42.9,42.9,0,0,1,42.89-42.9h243.11A42.9,42.9,0,0,1,3311.84,983.14Z" transform="translate(-708.12 -706.87)"/>
    <path d="M2728.12,1167h126.12a0,0,0,0,1,0,0v102.12a24,24,0,0,1-24,24H2728.12a0,0,0,0,1,0,0V1167A0,0,0,0,1,2728.12,1167Z" transform="translate(3313.12 -2268) rotate(90)"/>
  </g>
  <path class="d" d="M849.06,2854.82c-.43.17-.8.34-1.1.49-.82.39-1.45.74-1.84,1-.18.1-.54.32-1,.62-.19.13-.6.4-1.09.77a22.48,22.48,0,0,0-1.76,1.42,27.3,27.3,0,0,0-2.27,2.3c-.3.36-.72.86-1.18,1.49a24.92,24.92,0,0,0-2.2,3.68,23.84,23.84,0,0,0-1.12,2.71,23.3,23.3,0,0,0-1,4.15,22.56,22.56,0,0,0-.25,4.15c.08,3.18,0,113.36,0,266.52H708.12a1066.5,1066.5,0,0,0,27.47-110.41c11.43-59.41,10.9-84.16,28.76-113.35C778.44,2897.32,803.21,2872.76,849.06,2854.82Z" transform="translate(-708.12 -706.87)"/>
  <path class="d" d="M1291.84,2984.23V3289c0,13.25-9.29,24-20.73,24-74.65-.09-103.55.11-178.21.11,11.15-1.12,78.23-9.06,114.2-72.55,20.38-36,20.91-72.36,21.36-103.57.41-28.31,1.94-107.41-41.58-147.63-26.26-24.27-56.4-28.37-71.28-29.14h155.51C1282.56,2960.24,1291.84,2971,1291.84,2984.23Z" transform="translate(-708.12 -706.87)"/>
  <path class="e" d="M1055.72,3353.91" transform="translate(-708.12 -706.87)"/>
</svg>
